<?xml version="1.0" encoding="UTF-8"?>
<svg xmlns="http://www.w3.org/2000/svg" version="1.1" viewBox="0 0 1920 1080">
  <defs>
    <style>
      .cls-1 {
        font-size: 420px;
      }

      .cls-1, .cls-2 {
        font-family: SketsaRamadhanAlternates, 'Sketsa Ramadhan Alternates';
      }

      .cls-1, .cls-3 {
        fill: none;
        stroke: #fff;
        stroke-miterlimit: 10;
        stroke-width: 2px;
      }

      .cls-2 {
        fill: #295ba3;
        font-size: 400px;
      }
    </style>
  </defs>
  <!-- Generator: Adobe Illustrator 28.7.0, SVG Export Plug-In . SVG Version: 1.2.0 Build 136)  -->
  <g>
    <g id="Layer_1">
      <text class="cls-2" transform="translate(2055.4 -87.6)"><tspan x="0" y="0">Make A Wish</tspan></text>
      <text class="cls-1" transform="translate(2099.4 689.4)"><tspan x="0" y="0">Make A Wish</tspan></text>
      <text class="cls-2" transform="translate(-2300.6 -658.6)"><tspan x="0" y="0">Make A Wish</tspan></text>
      <g>
        <path class="cls-3" d="M-1801.7,152c-12.3,5-23.8,7.6-34.4,7.6s-19.3-2.2-27.7-6.5c-8.4-4.3-15.5-10.4-21.4-18.1-5.9-7.7-10.4-17-13.6-27.9-3.2-10.9-4.8-23.1-4.8-36.5V-77.3c0-7-1-13-2.9-18.1-2-5-4.4-9.2-7.4-12.6-2.9-3.4-6.1-5.9-9.4-7.8-3.4-1.8-6.4-2.9-9.2-3.1l-11.8,9.2c4.5,9.8,6.7,21.6,6.7,35.3V118.4l-42.4-31.5V-71c0-7-.9-12.7-2.7-17-1.8-4.3-4.2-7.8-7.1-10.3-2.9-2.5-6.1-4.2-9.5-5-3.4-.8-6.7-1.3-10.1-1.3l-4.6,3.8V124.7l-40.3,27.7V-44.6c.3-10.4-.6-21.1-2.5-32.1-2-11.1-5.6-21.2-10.9-30.5-5.3-9.2-12.7-16.9-22.3-22.9-9.5-6-21.6-9-36.1-9-12.3-.3-23.3,2.2-33,7.6-9.7,5.3-17.9,12.2-24.6,20.6-6.7,8.4-11.9,17.9-15.5,28.6-3.6,10.6-5.5,21.1-5.5,31.5s1.7,19.5,5,28.1c5,13.7,12.5,24.6,22.5,32.6,9.9,8,21.6,12,35.1,12s7.8-.3,11.5-1c3.8-.7,7.8-1.7,12-3.1l2.5,8.4c-6.7,4.2-13.7,7.3-21,9.2-7.3,2-14.6,2.9-21.8,2.9-16,0-31.2-4.1-45.6-12.2-14.4-8.1-25.7-19-33.8-32.8-3.6-6.4-6.5-13.9-8.6-22.5-2.1-8.5-3.2-17.4-3.2-26.7s1.3-19.7,4-29.6c2.7-9.9,6.8-19.2,12.4-27.9,12-18.5,27.2-32,45.4-40.5,18.2-8.5,37-12.8,56.3-12.8h6.3c2,0,3.9.1,5.9.4,21,2.2,38.9,8.6,53.8,19.1,14.8,10.5,26.6,23.5,35.3,38.9l40.7-32.8c6.2,0,12.7,1.4,19.5,4.2,6.9,2.8,12.9,7.4,18.3,13.9l38.6-30.7c4.5.6,9.7,2.3,15.5,5.2,5.9,2.9,11.6,7.4,17,13.2,5.5,5.9,10.1,13.3,13.9,22.3,3.8,9,5.7,19.7,5.7,32.3V68.8c0,7.6.4,15.8,1.3,24.8.8,9,2.6,17.3,5.2,25,2.7,7.7,6.6,14.1,11.8,19.1,5.2,5,12,7.6,20.4,7.6s5.2-.2,8.2-.6,6.1-1.3,9.5-2.7l3.8,10.1Z"/>
        <path class="cls-3" d="M-1766.9,118.4h-30.2c-5.3-1.7-10.5-4.6-15.5-8.8-5-4.2-9.5-9.3-13.2-15.3-3.8-6-6.8-13.1-9-21.2-2.2-8.1-3.4-17.1-3.4-26.9v-18.9c0-13.7,2.4-25.6,7.4-35.7,4.9-10.1,11.1-19,18.7-26.7,7.6-7.7,15.8-14.6,24.6-20.8,8.8-6.2,17-12.1,24.6-17.9,7.6-5.7,14-11.6,19.3-17.4,5.3-5.9,8.3-12.6,8.8-20.2l4.6-1.3c4.2,5,6.1,11.3,5.7,18.7-.4,7.4-2,14.8-4.8,22.3-2.8,7.4-6.2,14.1-10.3,19.9-4.1,5.9-7.5,9.9-10.3,12.2h22.7V55.4c0,6.7.3,12,1.1,15.8.7,3.8,1.9,6.5,3.6,8.2s3.8,2.7,6.5,3.1c2.7.4,5.9.6,9.9.6h24.8l-14.3,35.3h-21.4c-9.2,0-17-1.7-23.3-5.2-6.3-3.5-11.3-8.2-15.1-14.1-3.8-5.9-6.5-12.6-8.2-20.2-1.7-7.6-2.5-15.4-2.5-23.5V-25.7c-8.4,6.2-16,13.6-22.9,22.5-6.9,8.8-10.3,18.6-10.3,29.2v20.2c.6,10.6,2.5,19.4,5.9,26.2,3.4,6.9,8.3,10.4,14.7,10.7h24.4l-12.2,35.3Z"/>
        <path class="cls-3" d="M-1608.1,12.1c1.7,2.8,3.2,6.2,4.6,10.3,1.4,4.1,2.8,8.3,4.2,12.6,1.4,4.3,2.7,8.7,4,13,1.3,4.3,2.3,8.3,3.1,12,1.7,6.4,3.8,11.9,6.3,16.4,2.5,4.5,7.1,6.7,13.9,6.7h26l-13.9,35.3h-16c-11.2,0-20.3-2.2-27.3-6.7-7-4.5-12.7-10.1-17-16.8-4.3-6.7-7.6-14-9.9-21.8-2.2-7.8-4.2-15.1-5.9-21.8-1.7-6.7-3.4-12.3-5.2-16.8-1.8-4.5-4.3-6.7-7.4-6.7h-9.7v90.7h-37.8V-166.4l37.8-25.6V8.8c5,.3,9.2-1.2,12.4-4.4s5.9-7.5,8-12.8c2.1-5.3,4-11.2,5.7-17.6,1.7-6.4,3.5-12.9,5.5-19.3,3.4-10.4,7-19.3,10.9-26.9,3.9-7.6,8.7-13.6,14.5-18.1,5.7-4.5,12.5-7.1,20.2-8,7.7-.8,17,.4,27.9,3.8l-2.1,8.8c-4.8-1.1-8.8-.8-12.2.8-3.4,1.7-6.3,4.6-8.8,8.8s-4.9,9.7-7.1,16.4c-2.2,6.7-4.5,14.6-6.7,23.5-.6,2.8-1.4,6.4-2.5,10.9-1.1,4.5-2.5,9-4,13.6-1.5,4.6-3.3,9.1-5.2,13.4-2,4.3-4.1,7.8-6.3,10.3Z"/>
        <path class="cls-3" d="M-1435.9,118.4h-52.5c-7.3,0-15.3-.9-23.9-2.7-8.7-1.8-16.7-5-24.1-9.7-7.4-4.6-13.6-11.1-18.7-19.3-5-8.3-7.6-18.8-7.6-31.7V-24l56.7-50.8c6.2,2.2,12.2,5.1,18.1,8.6,5.9,3.5,11,7.7,15.3,12.6,4.3,4.9,7.9,10.4,10.7,16.6,2.8,6.2,4.2,13,4.2,20.6.3,5.9,0,12-1,18.5-1,6.4-2.7,12.6-5.2,18.5-2.5,5.9-6,11.3-10.3,16.2-4.3,4.9-9.9,9-16.6,12.4h-33.6v4.2c0,7.6,1.4,13.4,4.2,17.4,2.8,4.1,6.1,7,9.9,8.8,3.8,1.8,7.6,2.9,11.5,3.1,3.9.3,7,.4,9.2.4h71.8l-18.1,35.3ZM-1530.4-141.6l24.8,24.4-24.8,23.9-23.9-23.9,23.9-24.4ZM-1518.2,32.7c3.6-.3,6.9-1.6,9.7-4,2.8-2.4,5.1-5.5,6.9-9.2,1.8-3.8,3.1-8,3.8-12.8.7-4.8.9-9.7.6-14.7-.8-9.8-4.6-18.1-11.3-24.8-1.7-1.4-3.6-2.7-5.7-4-2.1-1.3-4.3-2.3-6.5-3.1l-3.8,3.4V32.7h6.3ZM-1481.3-141.6l24.8,24.4-24.8,23.9-23.9-23.9,23.9-24.4Z"/>
        <path class="cls-3" d="M-1172.6-3.8h39.1c.6-2.5,1.3-5,2.1-7.6s1.7-5,2.5-7.6c3.6-12,7-23.2,10.1-33.4,3.1-10.2,6.2-19.9,9.2-29,3.1-9.1,6.4-17.9,9.9-26.2,3.5-8.4,7.4-17.1,11.5-26,5.3-10.9,11.6-19.7,18.7-26.2,7.1-6.6,14.8-11.3,23.1-14.1,8.3-2.8,16.7-3.8,25.4-2.9,8.7.8,17.2,3.4,25.6,7.6V57.1c0,9.5.3,19.3,1,29.2.7,9.9,2.2,19,4.4,27.3,2.2,8.3,5.5,15.3,9.9,21,4.3,5.7,10.1,9.3,17.4,10.7,2,.6,4.8.5,8.6-.2,3.8-.7,7.6-1.9,11.5-3.6l5.5,7.1c-3.9,3.1-8.3,5.6-13,7.6-4.8,2-9.4,3.2-13.9,3.8-12.3.3-23-2.1-32.1-7.1-9.1-5-16.6-12-22.5-21-5.9-9-10.2-19.5-13-31.5-2.8-12-4.2-24.9-4.2-38.6v-31.5h-74.3c-7.3,16.5-15.6,31.7-25,45.6-9.4,13.9-19.9,25.8-31.5,35.9-11.6,10.1-24.4,18-38.2,23.7-13.9,5.7-28.9,8.6-45.1,8.6s-31.6-2.9-45.4-8.8c-13.7-5.9-25.2-14.2-34.4-25-9.2-10.8-15.8-23.6-19.7-38.4-3.9-14.8-4.3-31.2-1.3-49.1,3.4-13.7,9-25.6,16.8-35.7,7.8-10.1,16.9-18.1,27.1-24.1,10.2-6,21.3-10,33.2-12,11.9-2,23.7-1.5,35.5,1.3l-.8,8.4c-6.7-.8-13.5-.8-20.4.2-6.9,1-13.4,3-19.7,6.1-6.3,3.1-12.1,7.5-17.4,13.2-5.3,5.7-9.8,12.8-13.4,21.2-6.2,14.3-8.4,27.9-6.7,41,1.7,13,6,24.7,13,35.1,7,10.4,16,18.8,27.1,25.2,11.1,6.4,22.7,10.4,34.9,11.8,12.2,1.4,24.4-.3,36.5-5.2,12.2-4.9,23-13.6,32.5-26.2,5.6-7.3,10.6-15.4,14.9-24.4,4.3-9,8.5-18.3,12.4-28.1h-52.1l24.8-34ZM-1095.3-8c-.3.8-.6,1.6-.8,2.3-.3.7-.6,1.3-.8,1.9h61.3v-141.1c-4.5,1.7-8.9,6.4-13.2,14.3-4.3,7.8-8.9,17.9-13.7,30-4.8,12.2-9.8,26.2-15.1,42.2-5.3,16-11.2,32.8-17.6,50.4Z"/>
        <path class="cls-3" d="M-932.8-157.5c12-5,23.5-7.6,34.4-7.6s19.3,2.2,27.7,6.5c8.4,4.3,15.5,10.4,21.4,18.1,5.9,7.7,10.4,17,13.7,27.9,3.2,10.9,4.8,23.1,4.8,36.5V71.8c0,7,1,13,2.9,18.1,2,5,4.4,9.2,7.4,12.6,2.9,3.4,6.1,6,9.5,7.8,3.4,1.8,6.4,2.9,9.2,3.1l11.3-8.8c-2-4.8-3.5-10.1-4.6-16-1.1-5.9-1.7-12.5-1.7-19.7V-123.9l42.4,31.5V65.5c0,14,3,23.7,9,29,6,5.3,12.8,7.1,20.4,5.5l4.6-3.4v-226.8l40.3-27.7V81.9l-64.3,53.8c-6.4,0-13-1.4-19.7-4.2-6.7-2.8-12.9-7.4-18.5-13.9l-38.2,30.7c-4.5-.6-9.7-2.3-15.5-5.2s-11.5-7.3-17-13.2c-5.5-5.9-10.1-13.3-13.9-22.3-3.8-9-5.7-19.7-5.7-32.3V-74.4c0-7.6-.4-15.8-1.3-24.8-.8-9-2.6-17.3-5.2-25-2.7-7.7-6.6-14.1-11.8-19.1s-12-7.6-20.4-7.6-5.2.2-8.2.6-6.1,1.3-9.5,2.7l-3.8-10.1Z"/>
        <path class="cls-3" d="M-635.4-141.6l24.8,24.4-24.8,23.9-23.9-23.9,23.9-24.4ZM-618.2,47c0,14.6,1.4,24.2,4.2,29,2.8,4.8,8.3,7.1,16.4,7.1h30.2l-13.9,35.3h-20.2c-19.3,0-33.3-6.1-41.8-18.3-8.5-12.2-12.8-28.1-12.8-47.7V-51.7l37.8-25.2V47Z"/>
        <path class="cls-3" d="M-476.2-79.4c0,4.5-.3,9.5-.8,15.1-.6,5.6-2,10.9-4.2,16-3.1,5.6-7.1,10.3-12,14.1-4.9,3.8-10.2,6.9-16,9.2-5.7,2.4-11.7,4.1-17.8,5.2-6.2,1.1-11.9,1.8-17.2,2.1,3.9,3.1,9.5,7.6,16.6,13.4,7.1,5.9,14.1,12.5,21,19.7,6.9,7.3,12.8,15.2,17.8,23.7,5,8.5,7.3,17.2,6.7,25.8-.6,9.5-3.2,17.6-7.8,24.4s-10.1,12.2-16.4,16.4c-6.3,4.2-12.9,7.4-19.7,9.5-6.9,2.1-13,3.1-18.3,3.1h-45.4l22.7-35.3h34c4.2,0,8-1.8,11.5-5.5,3.5-3.6,4.3-8.4,2.3-14.3-1.7-4.8-5.3-10.4-10.9-16.8-5.6-6.4-11.9-13-18.9-19.7-7-6.7-13.9-13.1-20.8-19.1-6.9-6-12.3-11.1-16.2-15.3l6.3-42c2.8-.6,8.7-1.3,17.6-2.3,9-1,18.8-2.6,29.6-4.8,10.8-2.2,21.1-5.2,30.9-9,9.8-3.8,16.9-8.7,21.4-14.9l3.8,1.3ZM-539.7,164.6l-23.9,23.9-24.4-23.9,24.4-24.8,23.9,24.8ZM-511.1,83.1h89l-13.9,35.3h-108.4l33.2-35.3ZM-492.2,164.6l-23.9,23.9-24.4-23.9,24.4-24.8,23.9,24.8Z"/>
        <path class="cls-3" d="M-384.7,17.6c0-7-.4-13.9-1-20.6-.7-6.7-2-12.9-4-18.5-2-5.6-4.7-10.2-8.2-13.9-3.5-3.6-7.9-5.7-13.2-6.3l-7.1,6.3V118.4h-37V-204.6l37-26V-55.1l24.8-22.3c16.5,5.3,28.4,15.6,35.7,30.9,7.3,15.3,10.9,35.6,10.9,61.1v32.3c0,14.6,1.4,24.2,4.2,29,2.8,4.8,8.3,7.1,16.4,7.1h72.2l-13.9,35.3h-62.2c-19.3,0-33.3-6.1-41.8-18.3-8.5-12.2-12.8-28.1-12.8-47.7V17.6Z"/>
      </g>
    </g>
  </g>
</svg>